<?xml version="1.0" standalone="no"?>
<!DOCTYPE svg PUBLIC "-//W3C//DTD SVG 20010904//EN"
 "http://www.w3.org/TR/2001/REC-SVG-20010904/DTD/svg10.dtd">
<svg version="1.0" xmlns="http://www.w3.org/2000/svg"
 width="16.000000pt" height="16.000000pt" viewBox="0 0 16.000000 16.000000"
 preserveAspectRatio="xMidYMid meet">
<metadata>
Created by potrace 1.11, written by Peter Selinger 2001-2013
</metadata>
<g transform="translate(0.000000,16.000000) scale(0.003448,-0.003448)"
fill="#000000" stroke="none">
<path d="M2425 4194 c-27 -3 -111 -14 -185 -25 -887 -133 -1504 -675 -1671
-1469 -27 -128 -31 -171 -36 -365 -6 -235 4 -346 49 -540 159 -693 732 -1218
1500 -1375 211 -43 346 -53 618 -46 224 5 275 9 419 36 207 38 425 104 612
187 l146 64 48 118 c47 116 47 118 30 144 -9 15 -21 27 -25 27 -4 0 -35 -18
-69 -40 -198 -128 -418 -204 -714 -246 -94 -13 -166 -15 -345 -12 -125 3 -235
9 -244 13 -17 7 -18 53 -18 776 l0 769 368 0 c374 0 592 -14 650 -43 64 -31
88 -112 97 -322 9 -202 1 -186 93 -183 l77 3 1 605 c0 359 -4 610 -9 618 -6 7
-34 12 -73 12 -78 0 -78 0 -94 -155 -16 -161 -28 -212 -58 -246 -46 -51 -130
-60 -624 -66 l-428 -5 0 777 0 778 163 -6 c258 -9 456 -56 682 -163 81 -38
210 -117 242 -148 8 -7 16 -87 24 -231 7 -121 16 -226 22 -232 6 -8 35 -13 77
-13 42 0 71 5 77 13 6 6 13 53 17 102 11 144 46 402 68 505 34 157 34 147 1
163 -110 57 -447 145 -723 188 -173 27 -225 31 -455 34 -143 1 -282 1 -310 -1z
m-375 -1844 c0 -847 -2 -1540 -4 -1540 -17 0 -116 51 -191 98 -380 238 -639
628 -727 1097 -30 163 -33 560 -5 730 74 447 289 794 627 1010 66 42 272 144
293 145 4 0 7 -693 7 -1540z"/>
</g>
</svg>
